<svg xmlns="http://www.w3.org/2000/svg" viewBox="0 0 1920 443" width="1920" height="443">
	<style>
		tspan { white-space:pre }
	</style>
	<path id="tech " fill="#ffffff" d="M47.69 230.9L47.69 149.92L1.91 149.92L17.53 88.97L47.69 88.97L47.69 1.31L116.91 1.76L116.91 88.97L162.91 88.97L147.5 149.92L116.91 149.92L116.91 225.34Q116.91 255.6 153.79 255.6Q165.73 255.6 172.02 252.71L152.06 323.45Q146.63 324.34 141.42 324.34Q110.4 324.34 89.78 314.11Q68.95 303.87 58.32 283.18Q47.69 262.72 47.69 230.9ZM303.08 144.58Q317.61 144.58 330.42 152.15Q338.23 157.04 345.6 165.94L260.55 165.94Q267.92 157.04 275.74 152.15Q288.54 144.58 303.08 144.58ZM415.26 153.48Q405.49 130.79 388.35 114.55Q370.99 97.87 349.08 89.19Q326.94 80.29 303.08 80.29Q279.21 80.29 256.86 89.19Q235.16 97.87 217.8 114.77Q200.66 131.24 190.9 153.48Q181.13 175.51 181.13 201.54Q181.13 236.24 198.06 264.05Q214.55 291.86 242.97 307.88Q270.75 323.67 303.08 323.67Q326.94 323.67 349.08 314.78Q365.57 307.88 381.62 294.53L344.3 239.8L343.87 240.47L343.22 241.14L342.57 242.03L342.13 242.47Q325.64 259.38 303.08 259.38Q280.73 259.38 264.02 242.47Q250.78 228.9 248.18 210.21L397.46 210.21L397.46 209.77L424.37 209.77L424.8 205.99Q425.02 204.65 425.02 203.54L425.02 201.54Q425.02 175.95 415.26 153.48ZM642.87 107.65L606.85 157.93Q597.52 149.92 586.45 145.92Q574.95 141.91 562.15 141.91Q538.28 141.91 521.79 157.71Q505.09 173.51 505.09 196.87Q505.09 215.11 512.25 229.57Q519.19 244.03 532.86 252.48Q546.1 261.16 563.45 261.16Q589.06 261.16 607.28 244.47L645.26 293.86Q637.01 302.76 622.26 309.66Q607.28 316.56 591.44 319.89Q575.6 323.23 562.15 323.23Q524.4 323.23 495.54 306.99Q466.68 290.53 451.27 263.83Q435.87 236.69 435.87 205.76Q435.87 177.51 445.2 154.6Q454.75 131.24 471.45 114.55Q487.94 98.31 511.6 88.97Q535.03 79.85 562.15 79.85Q584.28 79.85 605.33 86.96Q626.6 94.31 642.87 107.65ZM656.1 1.31L725.54 1.09L725.54 102.54Q735.52 92.08 750.27 86.07Q765.25 80.07 780.65 80.07Q864.19 80.07 864.19 180.4L864.19 317L794.76 317.22L794.76 185.3Q794.76 164.83 785.64 154.6Q776.53 144.36 760.04 144.36Q743.98 144.36 734.87 154.6Q725.54 164.83 725.54 185.3L725.54 317L656.1 317.44L656.1 1.31Z" />
	<path id="LUJO " fill="#ffffff" d="M1175.32 247.03L1155.08 317L977.48 317L977.48 10.79L1053.22 10.57L1053.22 247.03L1175.32 247.03ZM1560.97 10.14L1487.63 10.14L1487.63 302.32L1487.41 302.32Q1485.67 313.54 1484.58 317Q1477.62 337.73 1461.08 352.2Q1444.75 366.88 1421.68 372.93L1421.03 373.15L1420.16 373.15Q1418.64 373.36 1417.33 373.58Q1412.76 374.44 1407.76 375.09L1407.76 440.74Q1425.6 439.66 1440.18 436.2Q1481.75 426.05 1512.87 398.41Q1544 370.77 1555.53 333.84Q1559.67 320.67 1560.54 305.55L1560.97 305.55L1560.97 10.14ZM1751.84 73.41Q1728.12 73.41 1708.1 86.15Q1687.86 98.68 1676.1 119.84Q1664.35 140.79 1664.35 163.89Q1664.35 187 1676.32 207.95Q1688.29 229.33 1708.1 241.85Q1728.12 254.59 1751.84 254.59Q1775.35 254.59 1795.37 241.85Q1815.17 229.33 1827.36 207.95Q1839.11 186.78 1839.11 163.89Q1839.11 140.79 1827.36 119.84Q1815.61 98.89 1795.59 86.15Q1775.13 73.41 1751.84 73.41ZM1751.84 3.45Q1796.02 3.45 1833.46 24.82Q1871.11 46.42 1892.87 83.13Q1914.85 120.27 1914.85 163.89Q1914.85 207.73 1892.87 244.44Q1871.11 281.37 1833.46 302.75Q1796.02 324.13 1751.84 324.13Q1707.88 324.13 1670.23 302.75Q1632.36 281.15 1610.59 244.44Q1588.61 207.73 1588.61 163.89Q1588.61 120.27 1610.59 83.13Q1632.36 46.64 1670.23 24.82Q1707.88 3.45 1751.84 3.45Z" />
	<path id="LUJO " fill="#ff0000" d="M1364.23 10.57L1439.97 10.79L1439.97 210.75Q1439.97 245.52 1422.99 271.22Q1406.01 297.13 1376.2 310.52Q1346.16 324.13 1307.42 324.13Q1271.08 324.13 1243.87 312.47Q1216.45 300.8 1201.43 276.62Q1186.2 252.43 1186.2 216.15L1186.2 10.57L1262.16 10.79L1262.16 194.56Q1262.16 212.48 1266.29 225.44Q1270.64 239.04 1281.09 246.6Q1291.32 254.59 1309.38 254.59Q1343.12 254.59 1353.78 234.94Q1364.23 215.07 1364.23 178.15L1364.23 10.57Z" />
</svg>